<?xml version="1.0" encoding="UTF-8"?>
<svg viewBox="0 0 27 95" version="1.1" xmlns="http://www.w3.org/2000/svg" xmlns:xlink="http://www.w3.org/1999/xlink">
    <g id="Page-1" stroke="none" stroke-width="1" fill="none" fill-rule="evenodd">
        <g id="lamp-tall" fill-rule="nonzero" fill="#000000">
            <path d="M9.6,29.8 C9.4,29.8 9.2,29.8 9,29.8 C7.2,29.7 6.6,30.2 6.9,32 C7.2,33.7 7,35.4 7.1,37.1 C7.2,38.9 7.1,40.8 7.5,42.6 C7.7,43.2 7.6,44 7.6,44.6 C7.5,45.4 7.2,46 6.2,46.1 C5.3,46.2 4.8,45.9 4.4,44.9 C3.9,43.6 4.1,42.6 4.8,41.7 C5.3,41 5.7,40.4 5.5,39.4 C5.1,37.3 5.1,35.2 5.2,33.1 C5.2,32.1 5.1,31.1 4.8,30.1 C4.7,29.6 4.6,29.2 4.1,29 C1.8,28 1.5,26 1.8,24 C2.2,20.4 2.9,16.7 4,13.2 C4.8,10.6 5.1,7.9 5.5,5.2 C5.9,2.4 6.6,1.7 9.4,1 C13.2,0.2 17,0.3 20.7,2 C21.4,2.3 21.9,2.6 22,3.4 C22.2,4.6 22.5,5.8 22.4,7 C22.3,8.8 22.9,10.5 23.5,12.2 C24.8,15.6 25.1,19.2 26.3,22.6 C26.3,22.7 26.3,22.9 26.3,23 C26.8,26.7 25.3,28.5 21.4,29.3 C19.5,29.7 17.6,29.6 15.7,29.6 C14.3,29.6 14.1,29.8 14.2,31.1 C14.5,35.4 14.2,39.7 14.1,43.9 C14,50.4 13.9,57 13.6,63.5 C13.5,67 13.1,70.4 13,73.9 C12.8,77.1 12.8,80.3 12.6,83.5 C12.6,84.2 13,84.3 13.5,84.4 C14.6,84.6 15.8,84.7 16.9,84.8 C18.9,85.1 20.5,86.1 21.3,88 C22.4,90.6 20.8,93.2 17.7,93.9 C15.8,94.4 13.9,94.3 12,94.5 C9.1,94.8 6.1,94.7 3.3,93.9 C2.5,93.7 1.7,93.5 1.1,92.9 C0.7,92.5 0.4,92 0.3,91.5 C-0.2,89.1 1.8,85.9 4.3,85.3 C5.8,84.9 7.3,84.4 8.9,84.2 C10.2,84.1 10.4,83.4 10.5,82.4 C10.8,80.2 10.8,78 10.8,75.9 C11.1,68.1 11.4,60.2 11.7,52.4 C11.8,49.4 12,46.4 12.2,43.4 C12.4,40.3 12.5,37.1 12.2,34 C12.1,33.1 12.2,32.1 12.3,31.2 C12.4,30 11.8,29.8 10.9,29.9 C10.4,29.8 10,29.8 9.6,29.8 C9.6,29.8 9.6,29.8 9.6,29.8 Z M24.7,22.2 C24.7,22.2 24.7,22 24.7,21.8 C23.5,15.6 21.7,9.5 19.6,3.5 C19.4,3 19,2.8 18.6,2.6 C15.3,1.3 12,1.7 8.8,2.5 C8.3,2.6 7.7,2.8 7.7,3.3 C7.7,4.9 6.5,6.1 6.3,7.5 C6,10.4 5.2,13.1 4.5,15.9 C4,18.1 3.4,20.4 3.1,22.7 C2.9,24.3 3.1,24.5 4.5,24 C8.6,22.7 12.8,22.3 17,22.4 C19.2,22.4 21.7,22.1 23.8,23.3 C24.6,23.6 24.8,23 24.7,22.2 Z M24.6,26.1 C23.9,24.5 22.6,23.8 20.9,23.7 C20.1,23.7 19.3,23.5 18.5,23.5 C14.9,23.2 11.4,23.6 7.9,24.2 C7.1,24.3 6.8,24.7 6.8,25.6 C6.6,28.5 6.8,28.7 9.7,28.3 C10,28.3 10.2,28.2 10.5,28.1 C12.3,27.7 12.3,27.7 12.4,25.9 C12.4,25.5 12.2,24.8 12.9,24.8 C13.4,24.8 13.9,24.9 14.2,25.6 C14.4,26.3 14.4,26.9 14.5,27.6 C14.6,28.2 14.9,28.4 15.5,28.3 C17.6,28 19.6,27.6 21.8,27.6 C22.8,27.4 23.8,26.9 24.6,26.1 Z M16.6,88.3 C15.7,88.2 15.1,88 14.6,88.8 C14,89.7 12.8,90.1 11.9,90.8 C11.7,91 11.2,91 11.2,90.8 C11.1,90.1 10.7,90.1 10.2,90.2 C9.7,90.4 9.2,90.7 9.4,91.6 C11.6,91.3 13.7,90.8 16,91 C15.5,90 14.6,90.8 14,89.9 C15.2,90 15.9,89.2 16.6,88.3 Z M4,92.3 C4,92.5 4,92.7 4,92.8 C6.1,93.6 8.1,93.9 10.2,92.7 C8.2,92.6 6.1,92.4 4,92.3 Z M7.5,85.4 C8.1,85.9 8.6,85.6 9.1,85.7 C9.4,85.8 9.7,86.1 9.5,86.2 C8.7,86.7 10.4,87.8 9,88.1 C8.8,88.1 8.8,88.5 8.9,88.4 C9.7,88.2 9.9,89.1 10.5,89.1 C10.8,89.1 11.6,88.7 11.1,88.5 C10.2,87.9 10.4,87.2 10.3,86.4 C10.2,85.1 10.1,85 8.9,85 C8.5,85.2 8.1,85.3 7.5,85.4 Z M4.9,25.1 C4.3,25.2 3.9,25.5 3.8,26.1 C3.7,26.6 3.6,27.3 4.3,27.4 C4.9,27.5 5,26.9 5.1,26.5 C5.2,26 5.4,25.5 4.9,25.1 Z M19.2,87.7 C19.1,88.6 18.2,88.9 17.9,89.6 C17.8,89.9 17.6,90.3 17.9,90.5 C18.3,90.7 18.7,90.5 18.8,90.1 C19.1,89.3 19.7,88.7 19.2,87.7 Z M13.7,88.4 C13.2,88 13.1,87.2 12.4,87.5 C12,87.7 11.9,88.2 12.1,88.5 C12.5,89.1 13,88.6 13.7,88.4 Z M4.7,91.2 C5.5,91.4 6.4,92 7.2,91.2 C6.3,91.1 5.5,91.1 4.7,91.2 Z M13.1,86.2 C13.3,86.1 13.6,86 13.6,85.7 C13.6,85.5 13.4,85.4 13.2,85.4 C12.9,85.4 12.6,85.5 12.7,85.9 C12.7,86.1 12.9,86.2 13.1,86.2 Z M3.6,90 C3.8,90.2 4.1,90.2 4.3,90.1 C4.5,90 4.9,90 4.9,89.7 C4.8,89.3 4.4,89.4 4.1,89.5 C3.9,89.5 3.7,89.7 3.6,90 Z" id="Shape"></path>
        </g>
    </g>
</svg>
