<?xml version="1.0" encoding="UTF-8"?>
<svg viewBox="0 0 265 344" version="1.1" xmlns="http://www.w3.org/2000/svg" xmlns:xlink="http://www.w3.org/1999/xlink">
    <g id="Page-Layouts" stroke="none" stroke-width="1" fill="none" fill-rule="evenodd">
        <g id="Desktop:-Home" transform="translate(-162.000000, -194.000000)" fill-rule="nonzero" fill="#282C2F">
            <g id="Logo" transform="translate(162.000000, 194.000000)">
                <path d="M231.280848,29.1275456 C213.972496,9.95498392 191.140201,0 164.257015,0 C144.739086,0 122.275054,5.16184352 98.3379703,15.8542337 C13.6375217,52.3558414 0.380060156,107.661308 0.0117973362,137.157556 C-0.724728304,188.775991 33.1554511,232.282958 65.1943165,247.031083 C79.1883036,253.299035 93.1822908,268.784566 100.547547,277.633441 C98.7062331,279.476956 97.2331818,281.689175 96.4966562,283.53269 C94.6553421,288.694534 96.1283934,292.012862 97.6014446,293.856377 C99.0744959,295.699893 101.284073,297.174705 104.230175,298.280815 C104.230175,298.280815 104.230175,298.280815 104.230175,298.280815 C103.49365,302.705252 104.230175,306.02358 106.808015,308.973205 C109.385855,311.92283 113.436746,313.766345 119.328951,314.872454 C119.328951,315.241158 119.328951,315.609861 118.960688,315.609861 C118.224163,319.296892 118.960688,322.61522 121.170265,324.827438 C124.116368,328.514469 130.008573,330.357985 138.84688,330.357985 C139.215143,330.357985 139.583406,330.357985 139.583406,330.357985 C139.583406,330.726688 139.583406,330.726688 139.583406,331.095391 C138.84688,335.151125 140.319932,338.10075 141.792983,339.575563 C144.370823,342.525188 148.789977,344 155.418707,344 C165.361804,344 178.251002,340.681672 183.038419,338.838156 C198.87372,334.045016 219.496438,326.302251 218.759912,312.660236 C218.759912,311.185423 218.39165,308.973205 216.550335,307.129689 C222.074278,302.705252 225.756906,297.543408 225.388643,291.644159 C225.388643,289.43194 224.283855,286.113612 220.601227,284.270096 C223.915592,280.214362 226.125169,275.789925 225.756906,270.996785 C225.756906,268.415863 224.652118,265.097535 220.969489,262.885316 C223.915592,259.935691 225.756906,256.617363 226.125169,252.930332 C226.493432,248.505895 225.02038,245.924973 223.547329,244.450161 C222.442541,243.344051 220.969489,241.869239 219.496438,241.869239 C219.496438,241.869239 219.496438,241.869239 219.496438,241.869239 C219.496438,241.869239 219.496438,241.500536 219.496438,241.500536 C223.179066,230.07074 229.439534,219.378349 236.436528,207.948553 C241.223944,199.837085 246.379624,191.356913 250.430515,182.508039 C261.4784,158.542337 263.319714,141.21329 264.792765,122.409432 C266.265816,109.873526 260.373611,60.8360129 231.280848,29.1275456 Z M104.598438,289.43194 C103.861913,288.694534 103.49365,285.007503 107.912804,282.057878 C142.529509,282.057878 195.191092,259.566988 215.445547,248.874598 C215.445547,248.874598 215.81381,248.874598 215.81381,248.874598 C216.918598,249.243301 217.655124,249.612004 217.655124,249.980707 C217.655124,250.349411 218.39165,250.718114 218.023387,252.561629 C217.655124,255.142551 215.445547,258.092176 211.394656,261.041801 C207.343765,264.360129 201.819823,267.309753 195.191092,270.259378 C185.247996,274.683816 173.463586,279.108253 162.415701,282.426581 C152.840868,285.376206 137.005566,289.800643 123.379842,291.275456 C110.858906,292.381565 106.071489,291.275456 104.598438,289.43194 Z M116.751111,207.57985 C123.748105,205.367631 130.376836,199.468382 135.532515,192.831726 C139.215143,193.937835 143.266034,194.306538 147.685188,193.200429 C152.472605,192.463023 157.260021,190.98821 160.94265,188.775991 C163.888752,193.200429 167.939643,196.518757 173.463586,198.362272 C173.463586,198.362272 173.463586,198.362272 173.463586,198.362272 C166.834855,210.898178 159.469598,233.757771 171.622271,256.986066 C162.783964,260.304394 153.577393,263.254019 144.370823,265.834941 C139.583406,256.986066 127.798996,236.707395 114.909797,223.06538 C115.27806,221.959271 115.646323,220.853162 116.014586,219.378349 C117.487637,216.060021 117.487637,211.635584 116.751111,207.57985 Z M131.481624,162.598071 C132.954675,159.279743 134.427727,157.80493 134.795989,157.80493 C134.795989,157.80493 135.532515,158.173633 135.900778,158.91104 C139.583406,163.70418 138.478618,172.921758 132.954675,182.139335 C132.954675,182.139335 132.954675,182.139335 132.586413,181.770632 C128.903784,177.346195 129.272047,168.49732 131.481624,162.598071 Z M163.152227,168.49732 C163.520489,160.385852 167.203118,154.486602 171.622271,153.749196 C171.990534,153.749196 171.990534,153.749196 172.358797,153.749196 C173.463586,153.749196 174.568374,154.117899 174.936637,156.698821 C175.673162,162.229368 172.358797,171.446945 163.888752,178.083601 C163.520489,174.765273 163.152227,171.446945 163.152227,168.49732 Z M112.70022,304.917471 C111.963695,304.180064 111.227169,302.705252 111.595432,300.12433 C111.595432,300.12433 111.595432,300.12433 111.595432,300.12433 C112.70022,300.12433 113.436746,300.12433 114.541534,300.12433 C130.008573,300.12433 152.472605,294.22508 164.993541,290.538049 C177.146214,286.851018 201.083297,279.108253 215.077284,268.784566 C218.759912,269.521972 218.759912,270.996785 218.759912,272.102894 C219.128175,275.052519 217.286861,279.108253 212.131182,283.53269 C208.816816,286.113612 204.0294,289.063237 197.400669,292.012862 C190.403675,295.33119 180.828842,298.649518 168.676169,301.967846 C164.625278,303.073955 153.20913,306.02358 141.792983,307.867095 C137.005566,308.604502 131.849887,308.973205 127.430733,308.973205 C126.694207,308.973205 125.957682,308.973205 125.221156,308.973205 C118.592425,308.235798 114.541534,306.760986 112.70022,304.917471 Z M181.197105,332.201501 C177.514477,333.30761 164.993541,336.994641 155.78697,336.994641 C149.894765,336.994641 148.421714,335.519829 147.685188,335.151125 C147.685188,334.782422 146.948663,334.413719 147.316925,332.570204 C147.316925,332.201501 147.685188,331.464094 149.526502,329.989282 C161.310912,328.514469 173.095323,325.564845 177.146214,324.458735 C187.825836,321.50911 200.346771,317.453376 209.921605,312.291533 C212.131182,312.291533 212.131182,313.028939 212.131182,313.397642 C211.762919,316.71597 208.080291,324.090032 181.197105,332.201501 Z M209.553342,304.917471 C202.924611,308.973205 192.244989,313.766345 174.936637,318.559486 C170.517483,319.665595 156.891759,323.352626 144.739086,324.458735 C142.529509,324.458735 140.688195,324.827438 138.84688,324.827438 C132.21815,324.827438 127.798996,323.721329 125.957682,321.50911 C125.221156,320.771704 124.852893,319.665595 125.221156,317.084673 C125.221156,316.71597 125.589419,316.347267 125.957682,315.609861 C126.325945,315.609861 126.694207,315.609861 127.06247,315.609861 C143.266034,315.609861 164.257015,310.079314 170.14922,308.235798 C185.616259,303.811361 204.0294,297.912111 215.077284,289.43194 C218.759912,289.800643 218.759912,291.644159 218.759912,292.381565 C219.496438,295.699893 217.286861,300.12433 209.553342,304.917471 Z M255.217932,122.040729 C253.376617,140.475884 251.903566,156.698821 241.592207,178.821008 C237.541316,187.301179 232.7539,195.412647 227.966483,203.524116 C220.601227,215.691318 213.604233,227.121115 209.921605,240.394427 C209.921605,240.76313 209.921605,240.76313 209.553342,241.131833 C202.188086,244.818864 191.508464,249.612004 179.355791,254.405145 C167.939643,234.126474 174.568374,213.847803 180.092316,202.78671 C180.460579,201.6806 181.197105,200.574491 181.565368,199.837085 C191.140201,200.943194 197.032406,196.88746 199.978509,193.937835 C204.397662,189.144695 206.607239,182.508039 204.765925,176.977492 C204.0294,174.765273 202.188086,173.290461 199.978509,172.921758 C193.349778,172.184352 184.51147,181.770632 178.251002,191.356913 C177.514477,191.356913 177.146214,190.98821 176.409688,190.98821 C172.72706,189.882101 169.780957,187.669882 167.939643,184.720257 C179.355791,176.240086 184.51147,164.072883 183.038419,155.224009 C181.93363,148.587353 177.146214,145.269025 171.254009,146.375134 C163.152227,147.849946 157.260021,156.330118 156.523496,168.128617 C156.155233,172.921758 156.891759,177.714898 158.36481,182.508039 C155.050445,183.982851 151.367816,185.457663 146.948663,186.19507 C144.370823,186.563773 142.161246,186.563773 140.319932,186.563773 C145.843874,176.608789 148.789977,164.072883 142.529509,155.224009 C139.583406,151.168274 135.532515,150.062165 131.849887,151.905681 C124.852893,155.592712 121.170265,170.709539 124.48463,181.033226 C125.589419,184.351554 127.430733,186.932476 129.64031,189.144695 C125.221156,194.675241 120.433739,198.730975 116.014586,200.205788 C112.70022,187.669882 106.071489,176.240086 101.652336,172.921758 C99.0744959,171.078242 96.4966562,171.078242 94.2870793,172.553055 C89.8679254,175.50268 89.8679254,183.245445 90.9727139,189.144695 C93.1822908,199.468382 99.4427587,206.842444 108.281066,208.317256 C109.017592,208.317256 109.754118,208.685959 110.122381,208.685959 C110.490643,212.004287 110.490643,214.953912 110.122381,217.534834 C103.861913,212.004287 97.2331818,209.054662 91.7092395,210.898178 C83.9757203,213.4791 81.3978806,219.378349 82.8709318,224.17149 C84.7122459,230.808146 92.814028,235.969989 103.861913,233.757771 C107.176278,233.020364 109.754118,231.545552 111.963695,229.702036 C122.275054,241.131833 132.954675,258.460879 138.478618,268.04716 C137.373829,268.04716 136.637304,268.04716 136.269041,268.04716 C126.694207,270.259378 117.8559,272.102894 109.754118,272.471597 C109.385855,272.102894 109.017592,271.734191 109.017592,271.365488 C101.284073,262.14791 85.8170344,245.187567 69.6134703,237.813505 C40.1524447,224.17149 9.58663066,184.351554 9.95489348,137.157556 C10.6914191,89.9635584 43.4668101,50.1436227 102.388861,24.7031083 C125.221156,15.1168274 145.843874,9.95498392 164.257015,9.95498392 C188.194098,9.95498392 208.448553,18.4351554 223.915592,35.7642015 C251.167041,65.2604502 255.954457,111.717042 255.217932,122.040729 Z M185.984521,192.463023 C190.771938,185.826367 195.191092,182.139335 197.768932,180.664523 C197.768932,182.876742 197.032406,186.19507 194.454566,188.775991 C192.244989,190.98821 189.298887,192.094319 185.984521,192.463023 Z M107.912804,200.574491 C102.388861,199.099678 99.4427587,193.937835 98.3379703,190.619507 C96.4966562,185.826367 96.864919,181.401929 97.2331818,179.189711 C100.547547,182.508039 104.966701,191.356913 107.912804,200.574491 Z M106.071489,224.17149 C104.966701,225.277599 103.49365,226.015005 101.652336,226.383708 C94.6553421,227.858521 89.8679254,224.908896 89.1313998,221.959271 C88.3948741,219.378349 91.7092395,218.27224 93.1822908,217.903537 C93.5505536,217.903537 94.2870793,217.534834 94.6553421,217.534834 C97.9697075,217.903537 102.020598,220.115756 106.071489,224.17149 Z" id="Shape"></path>
            </g>
        </g>
    </g>
</svg>
