<?xml version="1.0" encoding="UTF-8"?>
<svg viewBox="0 0 65 96" version="1.1" xmlns="http://www.w3.org/2000/svg" xmlns:xlink="http://www.w3.org/1999/xlink">
    <g id="Page-1" stroke="none" stroke-width="1" fill="none" fill-rule="evenodd">
        <g id="lamp_floral" transform="translate(-18.000000, 0.000000)" fill-rule="nonzero" fill="#000000">
            <g id="Group" transform="translate(18.000000, 0.000000)">
                <path d="M31.2,0.2 C34.8,4.4408921e-16 38.6,1.2 42.5,1.9 C43.6,2.1 44.7,2.5 45.8,3 C46.5,3.3 46.9,3.8 46.9,4.5 C47.1,7.6 48.2,10.5 49,13.4 C50.4,18.4 52.2,23.3 55.2,27.6 C57.9,31.6 59.9,36.1 63.2,39.8 C64.5,41.3 65.2,43 64.8,45.1 C64.3,47.2 64.7,49.3 64.3,51.5 C63.9,53.9 61.9,56.6 59.6,57 C56.1,57.7 52.6,57.5 49.4,55.6 C47.3,54.4 45.1,55.3 44.7,57.8 C44.5,59.3 44.5,60.9 44.6,62.4 C44.8,66.3 43.3,69.9 42,73.5 C41.5,74.9 40.4,76.1 39.3,77.1 C37.7,78.6 38.3,81.4 40.4,82.1 C42.4,82.8 44.4,83.4 46.4,84.2 C47.8,84.8 48.9,85.6 49.6,87 C49.8,87.4 50.1,87.8 50.3,88.2 C51.8,90.2 51.2,92.4 48.8,93.2 C46.4,94.1 44,94.6 41.5,94.9 C37.9,95.3 34.4,95 30.8,94.9 C27.9,94.9 25.3,93.8 22.8,92.7 C22.5,92.6 22.2,92.5 22,92.3 C20,90.4 20.5,85.8 22.9,84.4 C24.5,83.5 26.2,82.8 28,82.5 C28.9,82.4 29.7,81.9 30.6,81.7 C31.8,81.3 32,80.6 32.2,79.5 C32.4,78.2 32.2,77.4 30.9,76.8 C29.6,76.2 28.6,75.1 27.9,73.8 C27.1,72.4 26.3,71 25.6,69.6 C25,68.3 24.4,67.1 24.6,65.5 C24.7,64.5 24.3,63.4 23.8,62.4 C23,61 22.2,59.6 22,58 C21.9,57.1 21,56.8 20.4,56.2 C18.6,54.3 16.9,53.9 14.4,55.3 C12.4,56.4 9.9,56.5 7.7,56.1 C5.5,55.8 3.6,54.6 2.4,52.5 C1.1,50.2 0.5,47.7 0.3,45.1 C0.2,44.2 0.4,43.3 0.9,42.4 C2.1,40.1 3.3,37.8 5.2,35.9 C5.4,35.7 5.5,35.6 5.7,35.4 C8,31.9 10.5,28.5 12.7,24.9 C15.5,20.3 16.9,15.1 17.3,9.7 C17.4,7.7 17.6,5.7 18.7,3.8 C19.4,2.5 20.5,1.5 21.8,1.3 C24.6,0.7 27.6,-0.1 31.2,0.2 Z M60.1,54.8 C60.8,54.4 61.4,54.2 61.1,53.1 C60.8,52.3 60.8,51.3 60.8,50.4 C60.7,48.9 60.7,48.9 62.4,48.5 C61.7,49.4 62,50.4 62.1,51.6 C62.7,50.4 62.5,49.5 62.4,48.5 C62.1,48.3 62.1,47.9 62.3,47.7 C62.6,47.3 63.2,46.9 62.7,46.4 C62.3,46 61.8,46.3 61.4,46.5 C58.7,47.7 55.9,47.6 53.1,47.4 C51.4,47.2 49.8,47.1 48.5,45.8 C47.6,44.8 46.8,45.2 46.7,46.5 C46.6,48.4 46.8,50.3 46.8,52.2 C46.8,52.9 47.3,53.1 47.9,53.1 C48.5,53.1 48.6,52.6 48.5,52.1 C48.2,51.2 48.4,50.3 48.3,49.4 C48.3,48.9 48.4,48.5 48.9,48.2 C49.3,48 49.5,48.4 49.8,48.7 C50.4,49.1 49.9,49.4 49.7,49.7 C49.1,51.1 49.1,52.5 49.5,53.9 C49.7,54.6 50.2,54.9 50.7,55.2 C51.4,55.5 51.8,55.2 51.6,54.5 C51.3,53.7 51.2,52.9 51.3,52 C51.3,51.5 51.2,50.9 52,50.8 C52.6,51.3 52.2,51.9 52.3,52.5 C52.4,53.1 52.3,53.7 52.3,54.3 C52.3,55.3 52.5,56.1 53.8,56 C53.7,52.8 53.7,52.8 54.6,52 C54.9,52.8 54.5,53.5 54.7,54.3 C54.8,54.7 54.8,55.2 54.9,55.6 C55,56 55.3,56.2 55.8,56.1 C56.1,56 56.2,55.7 56.2,55.4 C56.1,54.4 56,53.4 56,52.4 C56,51.9 55.9,51.4 56.4,51.1 C57.2,51.5 57,52 57.1,52.6 C57.2,53.3 57.1,54 57.3,54.6 C57.5,55.9 58,56.1 59.2,55.8 C59.5,55.5 59.8,55.1 60.1,54.8 L60.1,54.8 Z M24.5,14.8 C24.5,17 24.5,19.2 24.4,21.4 C24.2,25.2 23.4,28.9 23,32.7 C22.6,36 21.7,38.9 20.1,41.8 C19.6,42.7 19.7,43.2 20.3,44 C22.6,47.3 26.1,48.8 29.6,49.8 C35.9,51.7 41.2,49.2 45,44 C45.6,43.2 45.8,42.4 45.2,41.5 C44.8,40.8 44.5,40 44.3,39.1 C42.6,32.5 40.9,26 39.3,19.4 C38,14.1 37.5,8.7 36.7,3.4 C36.6,2.4 36.3,2 35.3,2 C34.1,2 32.8,1.8 31.7,1.8 C29.6,1.8 27.5,1.7 25.4,2.5 C24.7,2.8 24.3,3.1 24.5,3.8 C25.2,7.5 24.5,11.2 24.5,14.8 Z M38.1,3 C38.4,4.3 38.5,5.4 38.5,6.6 C38.7,10.9 39.3,15.1 40.4,19.2 C41.9,24.9 43,30.6 44.7,36.2 C45.5,38.8 46.4,41.4 48.2,43.4 C49.3,44.6 50.5,45.6 52.2,45.9 C55.3,46.3 58.3,46 61.2,44.9 C63.2,44.1 63.6,43.1 62.2,41.5 C59.8,38.6 58,35.4 56.1,32.1 C55.8,31.6 55.5,31 55.1,30.6 C54.6,30 53.9,30.2 53.8,31 C53.6,31.8 53.7,32.7 53.9,33.5 C54.1,35 54.4,35.3 55.9,35.3 C56.5,35.3 57.3,34.8 57.3,35.8 C57.3,36.5 56.4,36.4 55.8,36.4 C55.6,36.4 55.3,36.4 55.1,36.3 C54,35.8 53.1,36.2 52.1,36.8 C50.4,37.8 48.7,36.8 48.7,34.8 C48.7,34 48.7,33.3 49,32.5 C49.2,31.9 49.1,31.6 48.3,31.5 C45.6,30.9 45,29.2 46.7,27.2 C47.4,26.4 48,25.7 47.7,24.4 C47.4,23.2 48.2,22 49.2,21.9 C50.8,21.8 50.2,21.1 50,20.3 C48.4,15.6 46.3,11 44.9,6.1 C44.7,5.6 44.7,4.9 44.2,4.7 C42.2,4.3 40.4,3.3 38.1,3 Z M2.7,42.4 C3,42.9 3.5,43.2 3.9,43.4 C7.9,45.2 12,45.1 16.1,43.8 C17.1,43.5 17.8,42.7 18.3,41.9 C19.4,40 20.7,38.1 21,35.9 C21.8,30.5 23,25 23,19.4 C22.9,15.1 23.6,10.9 23.4,6.6 C23.3,5.5 23.3,4.5 22.8,3.6 C21.2,4.2 21.2,4.2 20.7,5.2 C20,6.6 19.4,8.1 19.4,9.8 C19.4,11.1 19.2,12.4 18.7,13.6 C17.7,16.1 17.8,18.9 16,21.1 C16.6,21.3 17,21.4 17.3,21.5 C19.2,22.2 19.7,24.1 18.3,25.5 C17.5,26.4 17.6,27 18.2,27.9 C19.2,29.6 18.6,30.9 16.6,31.4 C15.8,31.6 15,31.7 14.2,31.9 C14.1,35.1 13.3,35.8 10.3,35.9 C9.8,35.9 9.2,35.9 8.7,36 C7.3,36.2 6.2,36.7 5.4,38.1 C4.4,39.5 3.7,41.1 2.7,42.4 Z M24.4,58.7 C25.5,63.1 27.1,67.3 29,71.2 C29.7,72.7 30.7,74.2 32.5,75.1 C36,77 40.8,74.9 41.2,70.9 C41.5,67.1 42.5,63.4 42.5,59.6 C42.5,58.8 42.5,58.5 41.5,58.7 C37.1,59.6 32.7,60 28.2,59 C27,58.7 25.8,58.4 24.4,58.7 Z M45.5,46.4 C45.1,46.2 44.9,46.4 44.8,46.6 C42.2,49.8 38.7,51.2 34.7,51.8 C34,51.9 33.2,52.3 32.4,52.1 C29.4,51.2 26.4,50.2 23.7,48.7 C22.4,48 21.2,47 20.1,45.9 C19.7,45.5 19.1,45.6 19.1,46.1 C19.1,48.3 18.6,50.5 18.9,52.7 C19,53.7 19.6,54.1 20.6,54.1 C20.6,53 20.6,52 20.6,51 C20.6,50 20.6,49 21.1,47.7 C21.7,48.8 21.7,49.5 21.6,50.2 C21.5,50.9 21.3,51.5 21.2,52.2 C20.9,54.2 21.6,55.4 23.5,56 C23.6,54.9 23.3,53.7 23.6,52.6 C23.7,52.3 23.9,52 24.3,52.1 C24.7,52.2 24.8,52.5 24.7,52.8 C24.5,53.6 24.4,54.4 24.4,55.3 C24.4,56.1 24.7,56.6 25.6,56.7 C26.6,56.8 26.7,56.2 26.7,55.4 C26.7,54.5 26.8,53.5 27.4,52.6 C27.7,52.9 27.8,53 27.8,53.1 C27.9,53.5 27.8,53.8 27.7,54.2 C27.2,56.7 28.1,57.7 30.9,58 C32.4,58.1 32.5,57.9 32.3,56.5 C32.2,55.5 31.9,54.5 32.7,53.3 C33.2,54.8 32.8,56 33.1,57.2 C33.2,57.8 33.6,58.2 34.2,58.1 C34.8,58 34.8,57.5 34.8,57 C34.8,56.4 34.6,55.8 34.7,55.2 C34.7,54.8 34.6,54.2 35.4,54.3 C35.8,55.2 35.6,56.2 35.8,57.2 C35.9,57.8 36.2,58.2 36.9,58.1 C37.5,58 38.1,57.9 38,57 C37.9,56.5 37.9,55.9 38,55.4 C38.1,54.6 37.6,53.8 38.5,53 C39,53.7 38.5,54.4 38.6,55 C38.7,55.6 38.5,56.2 39,56.8 C39.3,57.1 39.4,57.7 40,57.6 C40.6,57.5 40.4,56.9 40.4,56.5 C40.5,55.2 40.2,53.9 40.8,52.6 C41.6,54 40.9,55.7 41.5,57.3 C42.6,56.7 43.7,56.5 42.8,54.8 C42.3,54 42.4,53 42.4,52 C42.4,51.5 42.6,51 43.1,51.1 C43.6,51.2 43.5,51.6 43.5,52 C43.5,53 43.1,54.1 43.9,55.3 C46.8,52.5 45.3,49.3 45.5,46.4 Z M35.8,93.5 C38.6,93.3 41.9,92.5 45.2,91.9 C45.7,91.8 46.2,91.5 46.7,91.3 C47.9,90.6 48.2,89.1 47.5,87.9 C47.2,87.4 46.8,86.9 46.3,86.5 C45.8,86.1 45.1,85.8 44.5,85.7 C43.8,85.6 44,86.5 43.6,86.8 C43.4,87 43.2,87.3 42.9,87.4 C39.7,89.1 36.3,89.6 32.7,88.5 C31,88 29.4,87.1 28.1,85.7 C27.8,85.3 27.3,84.5 26.4,85 C25.6,85.5 24.6,85.9 23.9,86.6 C23.1,87.3 22.9,88.3 23.5,89.3 C24.6,91.4 26.1,92.8 28.6,92.9 C30.7,93.1 32.9,93.3 35.8,93.5 Z M15.3,47.4 C16.6,49 15.7,50.7 15.7,52.8 C15.9,52.1 16,51.9 16,51.8 C18,51 17.9,49.4 17.9,47.7 C17.9,46.6 18.1,45.5 18.3,44.3 C17.5,44.7 16.7,45.3 15.8,45.4 C11.6,46.2 7.3,46.5 3.1,45 C2.8,44.9 2.4,44.5 2.1,44.8 C1.7,45.1 1.7,45.8 2,46 C3,46.9 2.8,48 2.8,49.2 C2.8,49.7 2.8,50.1 3.4,50.3 C4,49.6 3.2,48.3 4.9,47.5 C3.9,49.4 5.4,50.8 4.4,52.4 C4.2,52.7 4.5,53.2 4.9,53.3 C5.7,53.4 5.5,52.8 5.5,52.4 C5.5,50.9 5.5,49.4 5.5,47.8 C5.5,47.4 5.6,47.2 6,47.2 C6.4,47.2 6.7,47.4 6.7,47.9 C6.7,48 6.7,48.2 6.6,48.3 C5.9,50.1 6.8,51.8 6.7,53.6 C6.7,53.9 6.8,54 7,54.1 C8.1,54.6 9.5,53.8 9.6,52.6 C9.7,51.6 9.6,50.6 9.7,49.6 C9.8,49.1 9.8,48.4 10.9,48.3 C10.6,49.5 10.4,50.5 10.3,51.5 C10.2,52.3 10.4,52.9 11.3,52.9 C12.2,52.9 12,52.2 12,51.6 C11.9,50.5 11.6,49.4 12.4,48.3 C13,49 12.8,49.7 12.8,50.4 C12.8,51.1 13.2,51.3 13.8,51.2 C14.5,51.1 14.5,50.7 14.4,50.2 C14.6,49.3 14.3,48.3 15.3,47.4 Z M34.8,86.7 C36.5,86.7 38,86.6 39.3,86 C39.8,85.8 40.4,85.6 40.4,85 C40.4,84.3 39.8,83.9 39.3,83.6 C38.7,83.2 38.3,83.8 37.9,84 C36,85.3 34.4,85.2 32.9,83.6 C32.4,83.1 32,82.7 31.4,83 C30.8,83.3 30.3,83.7 30.3,84.4 C30.3,85.1 30.6,85.8 31.3,86 C32.4,86.5 33.7,86.9 34.8,86.7 Z M14.9,27.2 C14.1,27.1 13.4,27.5 12.8,27.9 C12.1,28.4 12,29.3 12.5,29.9 C13.3,30.8 15.7,31 16.7,30.3 C17.2,29.9 17.4,29.5 17.1,29 C16.6,28 16,27.3 14.9,27.2 Z M33.7,81.2 C33.7,81.2 33.7,81.6 33.8,82.1 C33.9,82.6 34.2,82.9 34.8,82.7 C35.6,82.4 36.3,82 36.7,81.2 C37.1,80.2 36.6,79.3 36.4,78.3 C36.3,78 35.9,78.1 35.6,78.1 C34,78.4 33.8,78.7 33.7,81.2 Z M49.9,23.1 C49.3,23 49,23.3 48.8,23.9 C48.4,25 50.2,27.2 51.4,27.1 C51.9,27 52.3,26.8 52.4,26.3 C52.8,25.3 51.1,23.1 49.9,23.1 Z M52.5,34.4 C52.1,33.5 52.3,32.5 52.1,31.5 C52,30.9 51.5,30.8 51.1,31.2 C50.2,32 49.9,33.1 49.6,34.2 C49.5,34.7 49.2,35.2 49.8,35.6 C50.4,36 51.1,36 51.8,35.7 C52.3,35.5 52.5,35.1 52.5,34.4 Z M14.1,25.7 C16.1,26 16.9,25.7 17.5,24.3 C17.8,23.5 17.7,22.8 16.8,22.4 C16,22.1 15.3,22.2 14.9,23.1 C14.6,24 14.4,24.8 14.1,25.7 Z M11.1,30.5 C10.5,30.6 10.2,31 10.2,31.6 C10.2,32.3 10.4,32.9 10.4,33.6 C10.4,34.1 10.4,34.5 10.9,34.8 C11.5,35.1 12,34.7 12.3,34.4 C12.9,33.9 13,33.2 12.7,32.4 C12.4,31.4 11.9,30.9 11.1,30.5 Z M48.7,30.4 C49.5,30.4 50.4,30.5 50.7,29.5 C50.9,28.9 49.2,27.2 48.6,27.2 C48,27.2 47.1,28.1 47,28.8 C46.8,29.8 47.4,30.3 48.7,30.4 Z M53.8,28.7 C53.8,28 53.1,28 52.7,27.9 C52.2,27.8 51.8,28.1 51.9,28.6 C51.9,29.1 52.2,29.4 52.7,29.5 C53.2,29.6 53.6,29.3 53.8,28.7 Z M8.8,33.3 C8.1,33.6 7.8,34.2 7.7,34.8 C8.8,35 9.1,34.5 8.8,33.3 Z" id="Shape"></path>
                <path d="M31.2,36.5 C31.5,35.9 31.8,35.3 32.1,34.7 C33,33.1 34.4,32.9 35.2,34.4 C35.7,35.3 36.2,35.7 37.3,35.8 C39,36.1 39.8,37.4 39.3,39 C39.1,39.8 39.2,40.6 39.3,41.4 C39.7,43.9 38.4,45.5 36,45.3 C34.8,45.2 34,45.6 33,46.1 C31.2,46.9 31,46.8 29.7,45.3 C29,44.4 28.3,43.6 27.2,43.1 C25.4,42.3 25.2,41 26.5,39.5 C26.9,39 27.1,38.6 27.2,37.9 C27.5,35.8 28.1,35.5 30.1,36.3 C30.3,36.4 30.5,36.5 30.7,36.5 C31,36.6 31,36.5 31.2,36.5 Z M33.7,43.4 C33.7,42.2 32.4,41.2 31.8,41.8 C31.3,42.4 30.7,43 30.1,43.5 C29.8,43.8 29.9,44.2 30.1,44.5 C30.6,45.3 31.2,45.6 32.2,45.4 C33.5,45.2 33.6,44.2 33.7,43.4 Z M35.1,42.7 C35.1,44.2 35.3,44.5 36.3,44.5 C37.4,44.5 38.4,43.4 38.3,42.4 C38.2,41.6 37.4,41.2 36.2,41.1 C34.7,41 35.2,42 35.1,42.7 Z M34.7,36.1 C34.7,35.2 34.2,34.5 33.5,34.5 C33,34.5 32,36.1 32.1,36.8 C32.2,37.5 32.5,37.9 33.3,37.9 C34.2,37.9 34.7,37.3 34.7,36.1 Z M31.2,40.2 C31.2,38.1 31,37.6 29.6,37.2 C29.2,37.1 28.8,37 28.6,37.4 C28.4,37.8 28.5,38.2 28.7,38.5 C29.6,39.1 30.4,39.6 31.2,40.2 Z M38.3,38.4 C38.4,37.5 37.9,37.1 37.1,37.1 C36.3,37 35.8,37.6 35.6,38.3 C35.4,38.9 36.3,39.5 37.2,39.6 C38,39.6 38.1,39 38.3,38.4 Z M29.5,41.2 C29.3,40.5 28.8,40.1 28.1,40.1 C27.5,40.1 26.8,40.6 26.9,41.2 C27,42.2 27.9,42.1 28.7,42.1 C29.1,42.1 29.5,41.9 29.5,41.2 Z M33.6,40.6 C34.2,40.5 34.7,40.4 34.7,39.8 C34.7,39.3 34.2,39.3 33.8,39.3 C33.4,39.3 32.8,39.2 32.7,39.8 C32.7,40.3 33.1,40.5 33.6,40.6 Z" id="Shape"></path>
                <path d="M37.2,12.8 C37,14.6 36.3,16.3 35.6,18 C35.2,19.2 33.2,19.6 32,18.8 C31,18.1 30.2,18.1 29.1,18.2 C27.4,18.4 25.7,17.4 25.5,15.7 C25.3,14 25.9,12.3 25.9,10.5 C27,10.2 26.6,9.3 26.7,8.6 C26.9,6.8 28.1,6 29.8,6.8 C30.8,7.3 31.5,7.3 32.5,6.8 C33.6,6.2 34.3,6.6 34.6,7.7 C35,8.8 35.5,9.7 36.4,10.4 C37,11 37.2,11.9 37.2,12.8 Z M31.5,14.6 C31.5,15.4 31.5,16.1 31.6,16.7 C31.7,17.3 31.9,17.7 32.6,17.8 C33.3,17.8 34,18.1 34.5,17.5 C35,17 34.9,16.4 34.6,15.8 C34.5,15.6 34.2,15.5 34.1,15.3 C33.9,14.7 33.8,14.2 34.7,14.3 C35.4,14.4 35.9,14.2 36.1,13.5 C36.2,12.9 36.2,12.3 35.8,11.7 C35.6,11.3 35.3,10.9 34.8,10.9 C34.2,10.9 33.8,11.4 33.8,12 C34,13.8 33.2,14.5 31.5,14.6 Z M28.6,17 C29.7,17 30.6,16.4 30.4,15.5 C30.2,14.6 29.4,14.2 28.4,14.1 C27.3,14.1 26.5,14.5 26.5,15.3 C26.5,16.2 27.5,17 28.6,17 Z M30.4,9.9 C30.5,9 29.6,8.1 28.8,8.1 C28.2,8.1 27.9,8.6 27.7,9.1 C27.6,9.4 29.2,11.1 29.6,11.1 C30.3,11 30.3,10.4 30.4,9.9 Z M32.9,7.9 C32.4,7.9 31.6,9.1 31.6,9.8 C31.6,10.3 31.9,10.7 32.4,10.7 C33.1,10.8 33.9,10 33.8,9.2 C33.8,8.6 33.5,8.1 32.9,7.9 Z M32.6,12.7 C32.6,11.9 32.3,11.7 31.8,11.7 C31.1,11.7 30.4,11.9 30.4,12.8 C30.3,13.4 30.8,13.6 31.3,13.6 C31.9,13.5 32.5,13.4 32.6,12.7 Z M29.1,12.6 C28.6,11.8 28,11.4 27.2,11.5 C27.1,11.5 27,11.8 27,11.8 C27.4,12.7 28.2,12.7 29.1,12.6 Z" id="Shape"></path>
                <path d="M30.2,53.3 C30.5,54.7 29.7,56 30.7,57.2 C29.1,56.3 29,54.8 30.2,53.3 Z" id="Shape"></path>
                <path d="M60.1,54.8 C60,54.8 59.7,54.9 59.7,54.8 C58.6,53.8 58.4,51.4 59.4,50 C60.4,51.5 59.9,53.2 60.1,54.8 C60.1,54.8 60.1,54.8 60.1,54.8 Z" id="Shape"></path>
                <path d="M8.6,48.7 C9.1,50.1 8.5,51.6 9.1,52.9 C9.1,53 9,53.2 8.9,53.2 C8.8,53.2 8.6,53.2 8.5,53.1 C7.8,52.5 7.9,49.9 8.6,48.7 Z" id="Shape"></path>
            </g>
        </g>
    </g>
</svg>